######## ######## ######## ##          ######## ########  ######## ######## 
##       ##       ##       ##          ##       ##     ## ##       ##       
##       ##       ##       ##          ##       ##     ## ##       ##       
######   ######   ######   ##          ######   ########  ######   ######   
##       ##       ##       ##          ##       ##   ##   ##       ##       
##       ##       ##       ##          ##       ##    ##  ##       ##       
##       ######## ######## ########    ##       ##     ## ######## ########  

 Genre:Comedy
 Language:English
 IMDb: 
http://www.imdb.com/title/tt1730704/
 Source:BluRay.x264-SAiMORNY
 Subtitles:Romana


 Format : MPEG-4
 Format profile : Base Media
 Codec ID : isom
 File size : 2.08 GiB
 Duration : 1h 28mn
 Overall bit rate : 3 360 Kbps


 Video
 Format profile : High@L4.1
 Format settings, CABAC : Yes
 Format settings, ReFrames : 3 frames
 Codec ID : avc1
 Codec ID/Info : Advanced Video Coding
 Duration : 1h 28mn
 Bit rate mode : Variable
 Bit rate : 3 000 Kbps
 Maximum bit rate : 13.3 Mbps
 Width : 1 280 pixels
 Height : 720 pixels
 Display aspect ratio : 16:9
 Frame rate mode : Constant
 Frame rate : 23.976 fps
 Color space : YUV
 Chroma subsampling : 4:2:0
 Bit depth : 8 bits
 Scan type : Progressive
 Bits/(Pixel*Frame) : 0.136
 Stream size : 1.80 GiB (87%)
 Writing library : x264 


 Audio
 ID : 2
 Format : AAC
 Format/Info : Advanced Audio Codec
 Format version : Version 4
 Format profile : LC
 Format settings, SBR : No
 Codec ID : 40
 Duration : 1h 28mn
 Bit rate mode : Variable
 Bit rate : 442 Kbps
 Maximum bit rate : 519 Kbps
 Channel(s) : 6 channels
 Channel positions : Front: L C R, Side: L R, LFE
 Sampling rate : 48.0 KHz
 Stream size : 280 MiB (13%)


 Plot:
 A group of nerdy college guys who can't seem to connect with girls their own age discover the excitement of hooking up with sexy older women.


Greets:

 INK,CRYS,IMAGINE,LKRG,FXG,3Li,FLAWL3SS,TA,iLLUSiON,ViSiON,DTRG SAFCuk009,LU,TheFalcon007,MYSTiC,PrisM,Noir,WBZ,LAP,Rx,Kingdom,SAFCuk009+Fabreezy,HDLiTE,TWiZTED,ExtraTorrentRG.ELEKTRI4KA,MAGNAT,CM8
 And to all the other p2p grps past and present





----------------------------------                     
http://thepiratebay.org/user/hiest
----------------------------------





Screenshots:
 
http://www.pix2links.com/images/44855931400649551604.png
 
http://www.pix2links.com/images/54027434308758129391.png
 
http://www.pix2links.com/images/75777034922162582223.png
 
http://www.pix2links.com/images/80552355984400527884.png

######## ######## ######## ##          ######## ########  ######## ######## 
##       ##       ##       ##          ##       ##     ## ##       ##       
##       ##       ##       ##          ##       ##     ## ##       ##       
######   ######   ######   ##          ######   ########  ######   ######   
##       ##       ##       ##          ##       ##   ##   ##       ##       
##       ##       ##       ##          ##       ##    ##  ##       ##       
##       ######## ######## ########    ##       ##     ## ######## ######## 